<svg xmlns="http://www.w3.org/2000/svg" viewBox="0 0 1500 500" width="1500" height="500"><defs><clipPath id="jarclip"><rect x="96" y="120" width="232" height="256" rx="40"/></clipPath></defs>
  <rect width="1500" height="500" fill="#7CC6FF"/>
  <g opacity=".5"><circle cx="20" cy="22" r="4" fill="#fff"/><circle cx="98" cy="22" r="4" fill="#fff"/><circle cx="176" cy="22" r="4" fill="#fff"/><circle cx="254" cy="22" r="4" fill="#fff"/><circle cx="332" cy="22" r="4" fill="#fff"/><circle cx="410" cy="22" r="4" fill="#fff"/><circle cx="488" cy="22" r="4" fill="#fff"/><circle cx="566" cy="22" r="4" fill="#fff"/><circle cx="644" cy="22" r="4" fill="#fff"/><circle cx="722" cy="22" r="4" fill="#fff"/><circle cx="800" cy="22" r="4" fill="#fff"/><circle cx="878" cy="22" r="4" fill="#fff"/><circle cx="956" cy="22" r="4" fill="#fff"/><circle cx="1034" cy="22" r="4" fill="#fff"/><circle cx="1112" cy="22" r="4" fill="#fff"/><circle cx="1190" cy="22" r="4" fill="#fff"/><circle cx="1268" cy="22" r="4" fill="#fff"/><circle cx="1346" cy="22" r="4" fill="#fff"/><circle cx="1424" cy="22" r="4" fill="#fff"/><circle cx="1502" cy="22" r="4" fill="#fff"/><circle cx="20" cy="100" r="4" fill="#fff"/><circle cx="98" cy="100" r="4" fill="#fff"/><circle cx="176" cy="100" r="4" fill="#fff"/><circle cx="254" cy="100" r="4" fill="#fff"/><circle cx="332" cy="100" r="4" fill="#fff"/><circle cx="410" cy="100" r="4" fill="#fff"/><circle cx="488" cy="100" r="4" fill="#fff"/><circle cx="566" cy="100" r="4" fill="#fff"/><circle cx="644" cy="100" r="4" fill="#fff"/><circle cx="722" cy="100" r="4" fill="#fff"/><circle cx="800" cy="100" r="4" fill="#fff"/><circle cx="878" cy="100" r="4" fill="#fff"/><circle cx="956" cy="100" r="4" fill="#fff"/><circle cx="1034" cy="100" r="4" fill="#fff"/><circle cx="1112" cy="100" r="4" fill="#fff"/><circle cx="1190" cy="100" r="4" fill="#fff"/><circle cx="1268" cy="100" r="4" fill="#fff"/><circle cx="1346" cy="100" r="4" fill="#fff"/><circle cx="1424" cy="100" r="4" fill="#fff"/><circle cx="1502" cy="100" r="4" fill="#fff"/><circle cx="20" cy="178" r="4" fill="#fff"/><circle cx="98" cy="178" r="4" fill="#fff"/><circle cx="176" cy="178" r="4" fill="#fff"/><circle cx="254" cy="178" r="4" fill="#fff"/><circle cx="332" cy="178" r="4" fill="#fff"/><circle cx="410" cy="178" r="4" fill="#fff"/><circle cx="488" cy="178" r="4" fill="#fff"/><circle cx="566" cy="178" r="4" fill="#fff"/><circle cx="644" cy="178" r="4" fill="#fff"/><circle cx="722" cy="178" r="4" fill="#fff"/><circle cx="800" cy="178" r="4" fill="#fff"/><circle cx="878" cy="178" r="4" fill="#fff"/><circle cx="956" cy="178" r="4" fill="#fff"/><circle cx="1034" cy="178" r="4" fill="#fff"/><circle cx="1112" cy="178" r="4" fill="#fff"/><circle cx="1190" cy="178" r="4" fill="#fff"/><circle cx="1268" cy="178" r="4" fill="#fff"/><circle cx="1346" cy="178" r="4" fill="#fff"/><circle cx="1424" cy="178" r="4" fill="#fff"/><circle cx="1502" cy="178" r="4" fill="#fff"/><circle cx="20" cy="256" r="4" fill="#fff"/><circle cx="98" cy="256" r="4" fill="#fff"/><circle cx="176" cy="256" r="4" fill="#fff"/><circle cx="254" cy="256" r="4" fill="#fff"/><circle cx="332" cy="256" r="4" fill="#fff"/><circle cx="410" cy="256" r="4" fill="#fff"/><circle cx="488" cy="256" r="4" fill="#fff"/><circle cx="566" cy="256" r="4" fill="#fff"/><circle cx="644" cy="256" r="4" fill="#fff"/><circle cx="722" cy="256" r="4" fill="#fff"/><circle cx="800" cy="256" r="4" fill="#fff"/><circle cx="878" cy="256" r="4" fill="#fff"/><circle cx="956" cy="256" r="4" fill="#fff"/><circle cx="1034" cy="256" r="4" fill="#fff"/><circle cx="1112" cy="256" r="4" fill="#fff"/><circle cx="1190" cy="256" r="4" fill="#fff"/><circle cx="1268" cy="256" r="4" fill="#fff"/><circle cx="1346" cy="256" r="4" fill="#fff"/><circle cx="1424" cy="256" r="4" fill="#fff"/><circle cx="1502" cy="256" r="4" fill="#fff"/><circle cx="20" cy="334" r="4" fill="#fff"/><circle cx="98" cy="334" r="4" fill="#fff"/><circle cx="176" cy="334" r="4" fill="#fff"/><circle cx="254" cy="334" r="4" fill="#fff"/><circle cx="332" cy="334" r="4" fill="#fff"/><circle cx="410" cy="334" r="4" fill="#fff"/><circle cx="488" cy="334" r="4" fill="#fff"/><circle cx="566" cy="334" r="4" fill="#fff"/><circle cx="644" cy="334" r="4" fill="#fff"/><circle cx="722" cy="334" r="4" fill="#fff"/><circle cx="800" cy="334" r="4" fill="#fff"/><circle cx="878" cy="334" r="4" fill="#fff"/><circle cx="956" cy="334" r="4" fill="#fff"/><circle cx="1034" cy="334" r="4" fill="#fff"/><circle cx="1112" cy="334" r="4" fill="#fff"/><circle cx="1190" cy="334" r="4" fill="#fff"/><circle cx="1268" cy="334" r="4" fill="#fff"/><circle cx="1346" cy="334" r="4" fill="#fff"/><circle cx="1424" cy="334" r="4" fill="#fff"/><circle cx="1502" cy="334" r="4" fill="#fff"/><circle cx="20" cy="412" r="4" fill="#fff"/><circle cx="98" cy="412" r="4" fill="#fff"/><circle cx="176" cy="412" r="4" fill="#fff"/><circle cx="254" cy="412" r="4" fill="#fff"/><circle cx="332" cy="412" r="4" fill="#fff"/><circle cx="410" cy="412" r="4" fill="#fff"/><circle cx="488" cy="412" r="4" fill="#fff"/><circle cx="566" cy="412" r="4" fill="#fff"/><circle cx="644" cy="412" r="4" fill="#fff"/><circle cx="722" cy="412" r="4" fill="#fff"/><circle cx="800" cy="412" r="4" fill="#fff"/><circle cx="878" cy="412" r="4" fill="#fff"/><circle cx="956" cy="412" r="4" fill="#fff"/><circle cx="1034" cy="412" r="4" fill="#fff"/><circle cx="1112" cy="412" r="4" fill="#fff"/><circle cx="1190" cy="412" r="4" fill="#fff"/><circle cx="1268" cy="412" r="4" fill="#fff"/><circle cx="1346" cy="412" r="4" fill="#fff"/><circle cx="1424" cy="412" r="4" fill="#fff"/><circle cx="1502" cy="412" r="4" fill="#fff"/></g>
  <text x="92" y="214" font-family="Lilita One" font-size="128" fill="#fff" stroke="#13243B" stroke-width="13" paint-order="stroke">NO</text>
  <text x="92" y="330" font-family="Lilita One" font-size="128" fill="#fff" stroke="#13243B" stroke-width="13" paint-order="stroke">BACKSIES.</text>
  <g transform="rotate(-4 300 408)"><rect x="92" y="372" width="330" height="70" rx="35" fill="#FF5A5F" stroke="#13243B" stroke-width="7"/>
   <text x="257" y="422" text-anchor="middle" font-family="Lilita One" font-size="38" fill="#fff" stroke="#13243B" stroke-width="4" paint-order="stroke">$NOBACKSIES</text></g>
  <g transform="rotate(2 900 400)"><rect x="700" y="372" width="420" height="68" rx="16" fill="#FFD43B" stroke="#13243B" stroke-width="7"/>
   <text x="910" y="420" text-anchor="middle" font-family="Lilita One" font-size="31" fill="#13243B">you put it in, it stays in</text></g>
  <g transform="translate(1120,28) scale(1.05)"><g transform="translate(0,0) scale(1)">
    <ellipse cx="212" cy="396" rx="140" ry="16" fill="#13243B" opacity=".16"/>
    <rect x="96" y="120" width="232" height="256" rx="40" fill="#E8F6FF" stroke="#13243B" stroke-width="8"/>
    <g clip-path="url(#jarclip)"><ellipse cx="127" cy="330" rx="25" ry="10" fill="#FFD43B" stroke="#13243B" stroke-width="4"/><ellipse cx="179" cy="330" rx="25" ry="10" fill="#FFD43B" stroke="#13243B" stroke-width="4"/><ellipse cx="231" cy="330" rx="25" ry="10" fill="#FFD43B" stroke="#13243B" stroke-width="4"/><ellipse cx="283" cy="330" rx="25" ry="10" fill="#FFD43B" stroke="#13243B" stroke-width="4"/><ellipse cx="160" cy="310" rx="25" ry="10" fill="#FFD43B" stroke="#13243B" stroke-width="4"/><ellipse cx="212" cy="310" rx="25" ry="10" fill="#FFD43B" stroke="#13243B" stroke-width="4"/><ellipse cx="264" cy="310" rx="25" ry="10" fill="#FFD43B" stroke="#13243B" stroke-width="4"/><ellipse cx="130" cy="290" rx="25" ry="10" fill="#FFD43B" stroke="#13243B" stroke-width="4"/><ellipse cx="182" cy="290" rx="25" ry="10" fill="#FFD43B" stroke="#13243B" stroke-width="4"/><ellipse cx="234" cy="290" rx="25" ry="10" fill="#FFD43B" stroke="#13243B" stroke-width="4"/><ellipse cx="286" cy="290" rx="25" ry="10" fill="#FFD43B" stroke="#13243B" stroke-width="4"/><ellipse cx="163" cy="270" rx="25" ry="10" fill="#FFD43B" stroke="#13243B" stroke-width="4"/><ellipse cx="215" cy="270" rx="25" ry="10" fill="#FFD43B" stroke="#13243B" stroke-width="4"/><ellipse cx="267" cy="270" rx="25" ry="10" fill="#FFD43B" stroke="#13243B" stroke-width="4"/><ellipse cx="133" cy="250" rx="25" ry="10" fill="#FFD43B" stroke="#13243B" stroke-width="4"/><ellipse cx="185" cy="250" rx="25" ry="10" fill="#FFD43B" stroke="#13243B" stroke-width="4"/><ellipse cx="237" cy="250" rx="25" ry="10" fill="#FFD43B" stroke="#13243B" stroke-width="4"/><ellipse cx="289" cy="250" rx="25" ry="10" fill="#FFD43B" stroke="#13243B" stroke-width="4"/><ellipse cx="155" cy="230" rx="25" ry="10" fill="#FFD43B" stroke="#13243B" stroke-width="4"/><ellipse cx="207" cy="230" rx="25" ry="10" fill="#FFD43B" stroke="#13243B" stroke-width="4"/><ellipse cx="259" cy="230" rx="25" ry="10" fill="#FFD43B" stroke="#13243B" stroke-width="4"/><ellipse cx="136" cy="210" rx="25" ry="10" fill="#FFD43B" stroke="#13243B" stroke-width="4"/><ellipse cx="188" cy="210" rx="25" ry="10" fill="#FFD43B" stroke="#13243B" stroke-width="4"/><ellipse cx="240" cy="210" rx="25" ry="10" fill="#FFD43B" stroke="#13243B" stroke-width="4"/><ellipse cx="292" cy="210" rx="25" ry="10" fill="#FFD43B" stroke="#13243B" stroke-width="4"/></g>
    <rect x="96" y="120" width="232" height="256" rx="40" fill="none" stroke="#13243B" stroke-width="8"/>
    <path d="M122 150 Q114 230 122 300" stroke="#fff" stroke-width="12" stroke-linecap="round" fill="none" opacity=".85"/>
    <rect x="110" y="78" width="204" height="48" rx="12" fill="#FF5A5F" stroke="#13243B" stroke-width="8"/>
    <path d="M190 72 V48 a22 22 0 0 1 44 0 V72" fill="none" stroke="#13243B" stroke-width="10"/>
    <rect x="180" y="66" width="64" height="50" rx="9" fill="#FFD43B" stroke="#13243B" stroke-width="6"/>
    <circle cx="212" cy="88" r="7" fill="#13243B"/><rect x="209" y="90" width="7" height="15" fill="#13243B"/>
    <rect x="122" y="146" width="180" height="118" rx="20" fill="#fff" stroke="#13243B" stroke-width="6" transform="rotate(-3 212 205)"/>
    <ellipse cx="168" cy="196" rx="26" ry="29" fill="#fff" stroke="#13243B" stroke-width="6"/><ellipse cx="256" cy="196" rx="26" ry="29" fill="#fff" stroke="#13243B" stroke-width="6"/>
            <circle cx="175" cy="205" r="11" fill="#13243B"/><circle cx="249" cy="205" r="11" fill="#13243B"/>
            <path d="M132 160 L200 177" stroke="#13243B" stroke-width="11" stroke-linecap="round"/><path d="M292 160 L224 177" stroke="#13243B" stroke-width="11" stroke-linecap="round"/>
            <path d="M184 246 Q212 236 240 248" fill="none" stroke="#13243B" stroke-width="7" stroke-linecap="round"/><path d="M80 306 Q170 262 300 282" fill="none" stroke="#13243B" stroke-width="20" stroke-linecap="round"/>
                         <path d="M80 306 Q170 262 300 282" fill="none" stroke="#FFC9A3" stroke-width="10" stroke-linecap="round"/><path d="M344 306 Q254 262 124 282" fill="none" stroke="#13243B" stroke-width="20" stroke-linecap="round"/>
                         <path d="M344 306 Q254 262 124 282" fill="none" stroke="#FFC9A3" stroke-width="10" stroke-linecap="round"/><g transform="translate(124,284) rotate(-18) scale(1)">
  <ellipse cx="0" cy="0" rx="21" ry="18" fill="#FFC9A3" stroke="#13243B" stroke-width="6"/>
  <ellipse cx="-3" cy="-15" rx="9" ry="11" fill="#FFC9A3" stroke="#13243B" stroke-width="5"/></g><g transform="translate(300,284) rotate(18) scale(1)">
  <ellipse cx="0" cy="0" rx="21" ry="18" fill="#FFC9A3" stroke="#13243B" stroke-width="6"/>
  <ellipse cx="-3" cy="-15" rx="9" ry="11" fill="#FFC9A3" stroke="#13243B" stroke-width="5"/></g>
  </g></g></svg>